<?xml version="1.0" encoding="UTF-8"?>
<!DOCTYPE svg PUBLIC "-//W3C//DTD SVG 1.1//EN" "http://www.w3.org/Graphics/SVG/1.1/DTD/svg11.dtd">
<svg xmlns="http://www.w3.org/2000/svg" version="1.1" width="340px" height="51px" style="shape-rendering:geometricPrecision; text-rendering:geometricPrecision; image-rendering:optimizeQuality; fill-rule:evenodd; clip-rule:evenodd" xmlns:xlink="http://www.w3.org/1999/xlink">
<g><path style="opacity:0.998" fill="#4785b6" d="M 1.5,2.5 C 7.84209,2.33379 14.1754,2.50046 20.5,3C 26.1088,6.27694 27.9422,11.1103 26,17.5C 25.2155,19.286 24.0488,20.786 22.5,22C 17.5988,23.3254 12.5988,23.8254 7.5,23.5C 7.5,28.5 7.5,33.5 7.5,38.5C 5.5328,38.7394 3.69946,38.4061 2,37.5C 1.77208,25.7764 1.60542,14.1097 1.5,2.5 Z M 7.5,7.5 C 11.247,7.39241 14.9137,7.89241 18.5,9C 21.5388,12.805 20.8721,15.805 16.5,18C 13.5184,18.498 10.5184,18.6646 7.5,18.5C 7.5,14.8333 7.5,11.1667 7.5,7.5 Z"/></g>
<g><path style="opacity:0.999" fill="#4685b6" d="M 188.5,2.5 C 188.5,6.16667 188.5,9.83333 188.5,13.5C 190.5,13.5 192.5,13.5 194.5,13.5C 194.5,14.8333 194.5,16.1667 194.5,17.5C 192.833,17.5 191.167,17.5 189.5,17.5C 189.334,22.1785 189.501,26.8452 190,31.5C 191.796,32.767 193.629,32.767 195.5,31.5C 196.974,32.4363 197.974,33.7697 198.5,35.5C 194.915,38.7063 190.915,39.2063 186.5,37C 185.299,36.0975 184.465,34.9308 184,33.5C 183.5,23.172 183.334,12.8387 183.5,2.5C 185.167,2.5 186.833,2.5 188.5,2.5 Z"/></g>
<g><path style="opacity:0.357" fill="#96bdd7" d="M 188.5,2.5 C 189.479,5.62482 189.813,8.95815 189.5,12.5C 191.415,12.2155 193.081,12.5489 194.5,13.5C 192.5,13.5 190.5,13.5 188.5,13.5C 188.5,9.83333 188.5,6.16667 188.5,2.5 Z"/></g>
<g><path style="opacity:1" fill="#4483b5" d="M 249.5,2.5 C 249.5,7.83333 249.5,13.1667 249.5,18.5C 255.026,18.8214 260.36,18.4881 265.5,17.5C 265.5,12.5 265.5,7.5 265.5,2.5C 267.5,2.5 269.5,2.5 271.5,2.5C 271.667,14.1714 271.5,25.8381 271,37.5C 269.301,38.4061 267.467,38.7394 265.5,38.5C 265.5,33.5 265.5,28.5 265.5,23.5C 260.36,22.5119 255.026,22.1786 249.5,22.5C 249.5,27.5 249.5,32.5 249.5,37.5C 248.116,38.8009 246.616,38.8009 245,37.5C 244.5,25.8381 244.333,14.1714 244.5,2.5C 246.167,2.5 247.833,2.5 249.5,2.5 Z"/></g>
<g><path style="opacity:1" fill="#5b91be" d="M 275.5,2.5 C 280.123,1.40815 281.956,3.07482 281,7.5C 275.438,9.76996 273.605,8.10329 275.5,2.5 Z"/></g>
<g><path style="opacity:0.514" fill="#fcbda9" d="M 66.5,18.5 C 66.2624,16.5956 65.2624,15.2623 63.5,14.5C 64.2625,13.7321 65.2625,13.2321 66.5,13C 63.3323,12.4177 62.999,11.4177 65.5,10C 63.8934,8.95101 63.2267,7.45101 63.5,5.5C 71.9992,5.98475 75.6659,10.3181 74.5,18.5C 73.5745,17.3595 72.7412,17.3595 72,18.5C 71.3333,14.5 70.6667,14.5 70,18.5C 68.8545,17.3157 67.6879,17.3157 66.5,18.5 Z"/></g>
<g><path style="opacity:0.995" fill="#f8825a" d="M 63.5,14.5 C 61.5456,18.4849 58.5456,19.4849 54.5,17.5C 52.3178,17.6972 50.3178,18.3639 48.5,19.5C 44.4762,18.6453 43.8095,16.8119 46.5,14C 52.2632,10.6897 57.9298,10.8564 63.5,14.5 Z"/></g>
<g><path style="opacity:0.999" fill="#538cbb" d="M 82.5,11.5 C 85.1667,11.8333 87.8333,12.1667 90.5,12.5C 90.7529,14.8273 90.0863,16.8273 88.5,18.5C 86.5914,17.6518 84.5914,17.3184 82.5,17.5C 82.33,18.8221 82.6634,19.9887 83.5,21C 88.8274,22.1557 91.8274,25.3224 92.5,30.5C 92.9218,34.5106 91.2551,37.0106 87.5,38C 83.1912,39.1984 79.5245,38.1984 76.5,35C 78.1439,31.5094 80.6439,30.6761 84,32.5C 85.4038,32.4907 86.5704,31.9907 87.5,31C 84.0245,28.1968 80.5245,25.3635 77,22.5C 75.1851,16.855 77.0185,13.1883 82.5,11.5 Z"/></g>
<g><path style="opacity:1" fill="#508ab9" d="M 108.5,11.5 C 120.142,12.6538 124.642,18.9872 122,30.5C 120.73,34.7703 117.896,37.2703 113.5,38C 109.796,38.8042 106.296,38.3042 103,36.5C 102.501,40.4862 102.334,44.4862 102.5,48.5C 100.5,48.5 98.5,48.5 96.5,48.5C 96.5,36.5 96.5,24.5 96.5,12.5C 99.0792,12.0833 101.246,12.75 103,14.5C 104.719,13.1312 106.552,12.1312 108.5,11.5 Z M 107.5,17.5 C 113.476,16.8249 116.809,19.4916 117.5,25.5C 116.185,31.6486 112.518,33.8152 106.5,32C 100.99,26.7302 101.323,21.8968 107.5,17.5 Z"/></g>
<g><path style="opacity:1" fill="#4986b7" d="M 150.5,20.5 C 150.5,22.5 150.5,24.5 150.5,26.5C 144.31,26.1771 138.31,26.5104 132.5,27.5C 133.746,30.643 136.08,32.643 139.5,33.5C 142.367,32.787 144.867,31.4536 147,29.5C 152.301,31.6117 152.134,34.1117 146.5,37C 132.889,40.7188 126.389,35.5521 127,21.5C 128.619,15.0534 132.785,11.7201 139.5,11.5C 145.418,11.9356 149.085,14.9356 150.5,20.5 Z M 136.5,17.5 C 140.539,16.6597 143.539,17.993 145.5,21.5C 141.5,22.8333 137.5,22.8333 133.5,21.5C 134.524,20.1482 135.524,18.8149 136.5,17.5 Z"/></g>
<g><path style="opacity:1" fill="#538cba" d="M 166.5,11.5 C 169.947,11.8143 173.28,12.6476 176.5,14C 178.451,15.7342 179.451,17.9009 179.5,20.5C 176.09,22.3049 173.424,21.4716 171.5,18C 165.789,17.0262 162.122,19.3596 160.5,25C 161.564,31.3947 165.231,33.728 171.5,32C 173.244,30.659 175.077,29.4923 177,28.5C 178.662,28.3875 179.829,29.0542 180.5,30.5C 176.233,38.3122 169.9,40.4788 161.5,37C 153.871,29.6954 153.538,22.0288 160.5,14C 162.611,13.1553 164.611,12.322 166.5,11.5 Z"/></g>
<g><path style="opacity:1" fill="#528cba" d="M 208.5,11.5 C 211.471,11.4354 214.138,12.2687 216.5,14C 215.624,15.586 214.624,17.086 213.5,18.5C 211.591,17.6518 209.591,17.3184 207.5,17.5C 207.281,18.675 207.614,19.675 208.5,20.5C 213.53,22.197 216.864,25.5303 218.5,30.5C 218.026,35.9728 215.026,38.6394 209.5,38.5C 207.161,38.3308 204.994,37.6642 203,36.5C 202.63,31.8572 204.63,30.5238 209,32.5C 210.662,32.6125 211.829,31.9458 212.5,30.5C 210.393,27.9391 207.726,26.1058 204.5,25C 199.741,18.6094 201.074,14.1094 208.5,11.5 Z"/></g>
<g><path style="opacity:1" fill="#4785b7" d="M 335.5,26.5 C 329.132,26.1703 322.798,26.5037 316.5,27.5C 316.624,28.1067 316.957,28.44 317.5,28.5C 321.594,34.8339 326.261,35.1673 331.5,29.5C 336.571,31.6454 336.571,34.1454 331.5,37C 316.182,41.0161 309.682,35.1828 312,19.5C 317.728,11.1488 324.728,9.81544 333,15.5C 335.319,19.084 336.153,22.7506 335.5,26.5 Z M 320.5,17.5 C 323.32,17.2475 325.986,17.7475 328.5,19C 329.337,20.0113 329.67,21.1779 329.5,22.5C 325.486,22.6655 321.486,22.4988 317.5,22C 318.386,20.3853 319.386,18.8853 320.5,17.5 Z"/></g>
<g><path style="opacity:1" fill="#528cba" d="M 36.5,12.5 C 37.8333,12.5 39.1667,12.5 40.5,12.5C 40.5,14.5 40.5,16.5 40.5,18.5C 38.0885,18.1367 36.5885,19.1367 36,21.5C 35.6667,26.8333 35.3333,32.1667 35,37.5C 33.3333,38.8333 31.6667,38.8333 30,37.5C 29.3333,31.5 29.3333,25.5 30,19.5C 31.0183,15.9853 33.1849,13.652 36.5,12.5 Z"/></g>
<g><path style="opacity:1" fill="#337cb1" d="M 275.5,12.5 C 277.167,12.5 278.833,12.5 280.5,12.5C 280.5,21.1667 280.5,29.8333 280.5,38.5C 278.833,38.5 277.167,38.5 275.5,38.5C 275.5,29.8333 275.5,21.1667 275.5,12.5 Z"/></g>
<g><path style="opacity:1" fill="#538cbb" d="M 284.5,12.5 C 286.833,12.5 289.167,12.5 291.5,12.5C 292.818,18.1415 294.985,23.4749 298,28.5C 300.196,23.5797 302.196,18.5797 304,13.5C 306.139,12.2309 308.305,12.2309 310.5,13.5C 307.333,21.1667 304.167,28.8333 301,36.5C 299.267,38.6015 297.267,38.9348 295,37.5C 291.488,29.1453 287.988,20.812 284.5,12.5 Z"/></g>
<g><path style="opacity:0.352" fill="#a3c5dd" d="M 249.5,2.5 C 250.487,7.30537 250.821,12.3054 250.5,17.5C 255.5,17.5 260.5,17.5 265.5,17.5C 260.36,18.4881 255.026,18.8214 249.5,18.5C 249.5,13.1667 249.5,7.83333 249.5,2.5 Z"/></g>
<g><path style="opacity:0.999" fill="#f77e54" d="M 63.5,19.5 C 64.609,19.5569 65.609,19.8902 66.5,20.5C 68.0573,36.7477 61.0573,41.9143 45.5,36C 41.3481,30.9661 40.5148,25.4661 43,19.5C 44.1545,20.7433 45.4878,21.7433 47,22.5C 46.167,28.4923 48.667,32.1589 54.5,33.5C 60.9199,31.4928 62.9199,27.3262 60.5,21C 61.2438,19.9614 62.2438,19.4614 63.5,19.5 Z"/></g>
<g><path style="opacity:0.51" fill="#fbb59e" d="M 63.5,19.5 C 64.209,18.596 65.209,18.2627 66.5,18.5C 66.5,19.1667 66.5,19.8333 66.5,20.5C 65.609,19.8902 64.609,19.5569 63.5,19.5 Z"/></g>
<g><path style="opacity:0.429" fill="#9abfd9" d="M 150.5,20.5 C 151.468,22.6074 151.802,24.9407 151.5,27.5C 145.167,27.5 138.833,27.5 132.5,27.5C 138.31,26.5104 144.31,26.1771 150.5,26.5C 150.5,24.5 150.5,22.5 150.5,20.5 Z"/></g>
<g><path style="opacity:0.42" fill="#9fc3da" d="M 265.5,23.5 C 260.5,23.5 255.5,23.5 250.5,23.5C 250.819,28.3633 250.486,33.03 249.5,37.5C 249.5,32.5 249.5,27.5 249.5,22.5C 255.026,22.1786 260.36,22.5119 265.5,23.5 Z"/></g>
<g><path style="opacity:0.431" fill="#99bfd9" d="M 335.5,26.5 C 329.5,27.1667 323.5,27.8333 317.5,28.5C 316.957,28.44 316.624,28.1067 316.5,27.5C 322.798,26.5037 329.132,26.1703 335.5,26.5 Z"/></g>
</svg>
